# xmcd
#
# Track frame offsets:
#	150
#	17065
#	36595
#	54651
#	80061
#	108305
#	124298
#	150939
#	169633
#	186855
#	202799
#	220798
#
# Disc length: 3173 seconds
#
# Revision: 1
# Processed by: cddbd v1.5.2PL0 Copyright (c) Steve Scherf et al.
# Submitted via: audiograbber 1.83.01
#
DISCID=9d0c630c
DTITLE=Various Artist - Street Beats V09 S06 CD1
DYEAR=1900
DGENRE=R&B
TTITLE0=50 Cent - 21 Questions Ft Nate Dogg
TTITLE1=Larry Gold - Ain't No Stopping Us Now Ft Black Thought
TTITLE2=702 - I Still Love You
TTITLE3=Terri Walker - Ching Ching (Lovin' You Still)
TTITLE4=The Detroit Experiment - Think Twice
TTITLE5=Gang Starr - Nice Girl, Wrong Place Ft Boy Big
TTITLE6=D'nell - This Thing
TTITLE7=Keith Lawrence and Mystro - Step By Step
TTITLE8=T Banks - Do U Like
TTITLE9=504 Boyz - Get Back
TTITLE10=Dave Hollister - Tell Me Why
TTITLE11=Jah Cure - Every Song I Sing
EXTD=
EXTT0=
EXTT1=
EXTT2=
EXTT3=
EXTT4=
EXTT5=
EXTT6=
EXTT7=
EXTT8=
EXTT9=
EXTT10=
EXTT11=
PLAYORDER=
